# xmcd
#
# Track frame offsets:
#	150
#	24348
#	45148
#	67162
#	87853
#	108028
#	127341
#	148467
#	174868
#	200346
#	219707
#	241702
#	262822
#
# Disc length: 3854 seconds
#
# Revision: 0
# Processed by: cddbd v1.5.2PL0 Copyright (c) Steve Scherf et al.
# Submitted via: dBpowerAMP V4.0
#
DISCID=b00f0c0d
DTITLE=Sonbacan - Salsa De La Casa
DYEAR=1900
DGENRE=
TTITLE0=Je Traigo Un Son
TTITLE1=La Camisa Negra
TTITLE2=Anne
TTITLE3=Vlaanderen Boven  ( Arriba Flandes )
TTITLE4=I Feel Good
TTITLE5=Adios Le Pido
TTITLE6=Ik Wil De Wereld Zien  ( Yo Quiro Ver El Mundo )
TTITLE7=Wat Een Wonder Van Een Vrouw  ( Que Milagro De Mujer )
TTITLE8=Ecuador
TTITLE9=El Tiempo
TTITLE10=Anne
TTITLE11=Ik Wil De Wereld Zien
TTITLE12=Wat Een Wonder Van Een Vrouw
EXTD=
EXTT0=
EXTT1=
EXTT2=
EXTT3=
EXTT4=
EXTT5=
EXTT6=
EXTT7=
EXTT8=
EXTT9=
EXTT10=
EXTT11=
EXTT12=
PLAYORDER=
